leg6dof9musc_states
version=1
nRows=31
nColumns=15
inDegrees=yes

# SIMM Motion File Header:
name leg6dof9musc_states
datacolumns 15
datarows 31
otherdata 1
range 0.80000000 0.83000000
endheader
time	pelvis_tilt	pelvis_tx	pelvis_ty	hip_flexion_r	knee_angle_r	knee_angle_pat_r	ankle_angle_r	pelvis_tilt_u	pelvis_tx_u	pelvis_ty_u	hip_flexion_r_u	knee_angle_r_u	knee_angle_pat_r_u	ankle_angle_r_u
      0.80000000	      1.55034429	      0.03759043	      1.05857326	     20.49866546	    -26.08878586	    -26.08878275	      8.59216925	     -2.89882326	      0.02074895	      0.17747658	    -77.51146330	     17.21267860	     17.21288568	     53.16780892
      0.80100000	      1.54756183	      0.03761056	      1.05875121	     20.42091638	    -26.07114409	    -26.07114078	      8.64521364	     -2.66660920	      0.01951422	      0.17842345	    -77.98509913	     18.06885595	     18.06906302	     52.91692019
      0.80200000	      1.54501011	      0.03762946	      1.05893010	     20.34269803	    -26.05265195	    -26.05264843	      8.69799735	     -2.43739948	      0.01828516	      0.17937172	    -78.45026376	     18.91362110	     18.91382818	     52.64507339
      0.80300000	      1.54268572	      0.03764713	      1.05910995	     20.26401880	    -26.03332039	    -26.03331666	      8.75048759	     -2.21196027	      0.01706309	      0.18032096	    -78.90686633	     19.74777084	     19.74797792	     52.33011609
      0.80400000	      1.54058484	      0.03766358	      1.05929074	     20.18488720	    -26.01315980	    -26.01315586	      8.80264169	     -1.99040003	      0.01584813	      0.18127051	    -79.35500927	     20.57175518	     20.57196226	     51.97297332
      0.80500000	      1.53870381	      0.03767883	      1.05947249	     20.10531122	    -25.99218011	    -25.99217597	      8.85442722	     -1.77227115	      0.01464021	      0.18221985	    -79.79564999	     21.38602097	     21.38622804	     51.59319706
      0.80600000	      1.53703915	      0.03769287	      1.05965518	     20.02529831	    -25.97039086	    -25.97038651	      8.90582239	     -1.55770032	      0.01343928	      0.18316822	    -80.22888843	     22.19097650	     22.19118357	     51.19238683
      0.80700000	      1.53558720	      0.03770571	      1.05983883	     19.94485584	    -25.94780113	    -25.94779658	      8.95680643	     -1.34685018	      0.01224563	      0.18411501	    -80.65477963	     22.98701973	     22.98722681	     50.77108979
      0.80800000	      1.53434393	      0.03771736	      1.06002341	     19.86399151	    -25.92441964	    -25.92441488	      9.00734987	     -1.14039985	      0.01105960	      0.18505929	    -81.07263271	     23.77457921	     23.77478628	     50.31131381
      0.80900000	      1.53330484	      0.03772783	      1.06020894	     19.78271330	    -25.90025467	    -25.90024970	      9.05741468	     -0.93848993	      0.00988129	      0.18600032	    -81.48255954	     24.55404748	     24.55425455	     49.81406608
      0.81000000	      1.53246560	      0.03773713	      1.06039541	     19.70102867	    -25.87531412	    -25.87530895	      9.10697338	     -0.74071285	      0.00871058	      0.18693761	    -81.88547803	     25.32579037	     25.32599744	     49.29928496
      0.81100000	      1.53182203	      0.03774525	      1.06058282	     19.61894459	    -25.84960555	    -25.84960016	      9.15600930	     -0.54720273	      0.00754738	      0.18787039	    -82.28149379	     26.09016527	     26.09037234	     48.76866643
      0.81200000	      1.53136975	      0.03775222	      1.06077115	     19.53646792	    -25.82313614	    -25.82313055	      9.20450691	     -0.35813602	      0.00639194	      0.18879790	    -82.67067153	     26.84750979	     26.84771686	     48.22281767
      0.81300000	      1.53110400	      0.03775804	      1.06096041	     19.45360581	    -25.79591274	    -25.79590694	      9.25244175	     -0.17417676	      0.00524460	      0.18971903	    -83.05237647	     27.59819375	     27.59840083	     47.64327002
      0.81400000	      1.53101960	      0.03776272	      1.06115059	     19.37036569	    -25.76794186	    -25.76793586	      9.29978061	      0.00454344	      0.00410542	      0.19063299	    -83.42671764	     28.34253535	     28.34274243	     47.03106188
      0.81500000	      1.53111151	      0.03776625	      1.06134167	     19.28675450	    -25.73922970	    -25.73922348	      9.34650105	      0.17843583	      0.00297423	      0.19153936	    -83.79455118	     29.08081187	     29.08101894	     46.40665837
      0.81600000	      1.53137486	      0.03776867	      1.06153366	     19.20277868	    -25.70978217	    -25.70977575	      9.39259174	      0.34739546	      0.00185091	      0.19243740	    -84.15596211	     29.81330590	     29.81351297	     45.77170014
      0.81700000	      1.53180463	      0.03776996	      1.06172655	     19.11844465	    -25.67960493	    -25.67959831	      9.43804238	      0.51126604	      0.00073569	      0.19332626	    -84.51100201	     30.54027810	     30.54048517	     45.12671678
      0.81800000	      1.53239545	      0.03777014	      1.06192031	     19.03375907	    -25.64870334	    -25.64869651	      9.48283362	      0.66944590	     -0.00037113	      0.19420465	    -84.85909113	     31.26204932	     31.26225640	     44.45304371
      0.81900000	      1.53314155	      0.03776922	      1.06211495	     18.94872883	    -25.61708248	    -25.61707544	      9.52693728	      0.82184873	     -0.00146949	      0.19507178	    -85.20032216	     31.97887141	     31.97907849	     43.75177700
      0.82000000	      1.53403740	      0.03776720	      1.06231045	     18.86336040	    -25.58474719	    -25.58473994	      9.57033618	      0.96891254	     -0.00255963	      0.19592732	    -85.53546591	     32.69093774	     32.69114481	     43.04372457
      0.82100000	      1.53507761	      0.03776410	      1.06250680	     18.77765986	    -25.55170213	    -25.55169467	      9.61302430	      1.11058549	     -0.00364169	      0.19677061	    -85.86457317	     33.39845730	     33.39866438	     42.33038318
      0.82200000	      1.53625676	      0.03775992	      1.06270399	     18.69163323	    -25.51795174	    -25.51794408	      9.65499655	      1.24675647	     -0.00471547	      0.19760070	    -86.18766955	     34.10161606	     34.10182313	     41.61213194
      0.82300000	      1.53756908	      0.03775468	      1.06290200	     18.60528676	    -25.48350024	    -25.48349237	      9.69623882	      1.37692563	     -0.00578066	      0.19841620	    -86.50424248	     34.80072078	     34.80092785	     40.87055328
      0.82400000	      1.53900856	      0.03774837	      1.06310082	     18.51862695	    -25.44835157	    -25.44834350	      9.73672830	      1.50106712	     -0.00683725	      0.19921628	    -86.81436171	     35.49596252	     35.49616959	     40.10678816
      0.82500000	      1.54056939	      0.03774100	      1.06330043	     18.43165993	    -25.41250958	    -25.41250129	      9.77645317	      1.61963547	     -0.00788550	      0.20000077	    -87.11868872	     36.18742844	     36.18763551	     39.34152056
      0.82600000	      1.54224600	      0.03773260	      1.06350081	     18.34439146	    -25.37597794	    -25.37596945	      9.81541262	      1.73263492	     -0.00892558	      0.20076907	    -87.41724180	     36.87525387	     36.87546094	     38.57611606
      0.82700000	      1.54403280	      0.03772316	      1.06370196	     18.25682734	    -25.33876026	    -25.33875156	      9.85360666	      1.84000783	     -0.00995729	      0.20152016	    -87.71002472	     37.55955373	     37.55976081	     37.81083255
      0.82800000	      1.54592398	      0.03771269	      1.06390385	     18.16897353	    -25.30085989	    -25.30085098	      9.89102643	      1.94137093	     -0.01098033	      0.20225253	    -87.99661113	     38.24065052	     38.24085759	     37.02771546
      0.82900000	      1.54791352	      0.03770120	      1.06410646	     18.08083621	    -25.26227996	    -25.26227085	      9.92765462	      2.03675462	     -0.01199470	      0.20296537	    -88.27705813	     38.91867598	     38.91888305	     36.22787409
      0.83000000	      1.54999567	      0.03768870	      1.06430977	     17.99242124	    -25.22302358	    -25.22301426	      9.96348459	      2.12660714	     -0.01300069	      0.20365863	    -88.55191756	     39.59358356	     39.59379063	     35.43147035
